<svg width="19" height="18" viewBox="0 0 19 18" fill="none" xmlns="http://www.w3.org/2000/svg">
<path fill-rule="evenodd" clip-rule="evenodd" d="M1.87463 8.90445V16.4029H9.37312H16.8716V8.90445V1.40597H9.37312H1.87463V8.90445ZM14.997 8.90445V14.5283H9.37312H3.74926V8.90445V3.28059H9.37312H14.997V8.90445ZM10.4344 7.38132C9.32391 8.47681 8.33364 9.37311 8.23358 9.37311C8.13329 9.37311 7.62035 9.00404 7.09335 8.55296C6.56634 8.10188 5.9838 7.73282 5.79869 7.73282C5.37783 7.73282 4.68657 8.47657 4.68657 8.92929C4.68657 9.44106 7.84601 12.4787 8.27951 12.3838C8.80464 12.2687 14.0597 7.03007 14.0597 6.62187C14.0597 6.24343 13.1533 5.40922 12.7292 5.39727C12.5773 5.39305 11.5446 6.28584 10.4344 7.38132Z" fill="currentColor"/>
</svg>
