<?xml version="1.0" encoding="UTF-8"?>
<svg id="a" data-name="Layer 2" xmlns="http://www.w3.org/2000/svg" width="27.95" height="27.6" viewBox="0 0 27.95 27.6">
  <path fill="currentColor" d="M.49,12.11L12.89.42c.59-.56,1.51-.56,2.11-.01l12.26,11.34c.64.59.67,1.58.06,2.21l-1.35,1.4c-.6.62-1.59.63-2.2.03L15.07,6.78c-.59-.59-1.55-.6-2.15-.02L3.68,15.55c-.63.6-1.63.56-2.22-.09l-1.06-1.19c-.56-.62-.52-1.58.09-2.16Z"/>
  <path fill="currentColor" d="M.67,23.74l12.4-11.69c.59-.56,1.51-.56,2.11-.01l12.26,11.34c.64.59.67,1.58.06,2.21l-1.35,1.4c-.6.62-1.59.63-2.2.03l-8.71-8.61c-.59-.59-1.55-.6-2.15-.02L3.86,27.17c-.63.6-1.63.56-2.22-.09l-1.06-1.19c-.56-.62-.52-1.58.09-2.16Z"/>
</svg>