<?xml version="1.0" encoding="UTF-8"?>
<svg id="Layer_1" xmlns="http://www.w3.org/2000/svg" version="1.1" viewBox="0 0 27 27">
  <!-- Generator: Adobe Illustrator 29.1.0, SVG Export Plug-In . SVG Version: 2.1.0 Build 142)  -->
  <path fill="currentColor" d="M12.7,2.6c-4,.5-7.2,3.3-8.5,7.1-.4,1.2-.5,1.8-.5,3.3s0,1.4,0,1.9c.8,4.4,4,7.7,8.2,8.5.4,0,.8.1,1.9,0,1.2,0,1.4,0,1.9-.1,2.9-.6,5.2-2.3,6.7-4.8.8-1.4,1.4-3.2,1.5-4.7v-.7h-.1c-.3-.3-.4-.3-1.1.4-1,1-1.8,1.5-3,1.8-.5.1-.6.2-1.6.2h-1.3c-1.7-.4-3-1.3-4-2.6-1.7-2.4-1.8-5.5-.2-7.9.1-.2.5-.7.8-1,.6-.7.7-.8.4-1.1-.1,0-.2,0-.6,0h-.7v-.2Z" fill-rule="evenodd"/>
</svg>