<?xml version="1.0" encoding="UTF-8"?>
<svg id="a" data-name="Layer 2" xmlns="http://www.w3.org/2000/svg" width="27.95" height="27.6" viewBox="0 0 27.95 27.6">
  <path fill="currentColor" d="M27.46,15.48l-12.4,11.69c-.59.56-1.51.56-2.11.01L.68,15.85c-.64-.59-.67-1.58-.06-2.21l1.35-1.4c.6-.62,1.59-.63,2.2-.03l8.71,8.61c.59.59,1.55.6,2.15.02l9.24-8.79c.63-.6,1.63-.56,2.22.09l1.06,1.19c.56.62.52,1.58-.09,2.16Z"/>
  <path fill="currentColor" d="M27.28,3.86l-12.4,11.69c-.59.56-1.51.56-2.11.01L.5,4.22c-.64-.59-.67-1.58-.06-2.21L1.78.61C2.38,0,3.37-.02,3.98.58l8.71,8.61c.59.59,1.55.6,2.15.02L24.08.43c.63-.6,1.63-.56,2.22.09l1.06,1.19c.56.62.52,1.58-.09,2.16Z"/>
</svg>