<svg width="884" height="241" viewBox="0 0 884 241" fill="none" xmlns="http://www.w3.org/2000/svg">
<path fill="currentColor" fill-rule="evenodd" clip-rule="evenodd" d="M101.55 51.18C96.786 52.232 94.198 54.38 92.305 58.854C89.436 65.635 92.479 70.223 102.5 74.227C107.538 76.239 108.5 77.014 108.5 79.062C108.5 81.257 108.032 81.53 103.802 81.803C100.956 81.986 97.921 81.493 96.102 80.553C94.45 79.699 92.852 79 92.55 79C92.247 79 92 80.967 92 83.37C92 87.694 92.048 87.753 96.483 88.995C98.949 89.686 103.523 90.038 106.648 89.779C111.621 89.367 112.745 88.854 115.665 85.669C118.271 82.825 119 81.164 119 78.07C119 72.717 115.802 69.216 108.514 66.595C101.629 64.118 99.508 61.619 102.441 59.441C105.112 57.458 108.366 57.636 113.04 60.02L117 62.041V57.496C117 53.694 116.632 52.815 114.75 52.122C110.763 50.655 105.599 50.286 101.55 51.18ZM155 69.5V89H159.5H164V69.5V50H159.5H155V69.5ZM518.406 51.384C517.02 54.995 518.376 56.5 523.014 56.5C527.332 56.5 527.5 56.388 527.5 53.5C527.5 50.684 527.238 50.481 523.241 50.192C520.169 49.97 518.821 50.302 518.406 51.384ZM534 69.5V89H538.5H543V69.5V50H538.5H534V69.5ZM342 69.872V89L352.75 88.998C365.043 88.997 369.035 87.634 372.664 82.2C377.004 75.703 376.632 63.616 371.908 57.611C368.275 52.991 364.398 51.694 352.75 51.2L342 50.743V69.872ZM487 69.97V89H491.5H496V82.044V75.088L503.25 74.794L510.5 74.5V71V67.5L503.25 67.206L496 66.912V62.956V59H504.56H513.121L512.81 55.25L512.5 51.5L499.75 51.22L487 50.94V69.97ZM233 56.383C233 58.926 232.503 59.897 231 60.29C229.544 60.671 229 61.654 229 63.906C229 66.333 229.431 67 231 67C232.834 67 233 67.667 233 75.05C233 87.505 235.407 90.572 244.595 89.82C248.328 89.514 248.514 89.333 248.813 85.702C249.113 82.073 249.002 81.918 246.313 82.202L243.5 82.5L243.208 74.75L242.916 67H246.021C248.922 67 249.106 66.786 248.813 63.75C248.552 61.042 248.041 60.447 245.75 60.184C243.345 59.907 243 59.436 243 56.434V53H238H233V56.383ZM644.2 56.2C642.467 57.933 642.467 175.067 644.2 176.8C645.105 177.705 659.109 178 701.091 178H756.782L760.403 188.25C762.395 193.887 765.07 201.65 766.348 205.5C768.37 211.588 769.014 212.541 771.295 212.812C773.688 213.098 774.32 212.323 778.532 203.936L783.147 194.748L795.413 206.874C802.159 213.543 808.24 219 808.926 219C811.124 219 823 206.829 823 204.576C823 203.214 818.745 198.228 810.977 190.484L798.955 178.5L808.227 173.954C815.28 170.496 817.577 168.878 817.82 167.198C818.197 164.599 815.688 163.365 798.25 157.572L787 153.835V105.617C787 69.448 786.7 57.1 785.8 56.2C784.064 54.464 645.936 54.464 644.2 56.2ZM132.643 59.997C126.563 61.885 123 67.324 123 74.716C123 84.095 128.861 90 138.169 90C145.657 90 148 88.695 148 84.525C148 80.609 147.981 80.6 142.859 82.022C137.86 83.411 132.084 81.136 132.015 77.75C132.007 77.338 136.315 77 141.588 77H151.176L150.47 72.75C149.568 67.321 147.553 63.402 144.729 61.583C141.723 59.648 136.131 58.914 132.643 59.997ZM179.643 59.997C173.563 61.885 170 67.324 170 74.716C170 84.095 175.861 90 185.169 90C192.657 90 195 88.695 195 84.525C195 80.609 194.981 80.6 189.859 82.022C184.86 83.411 179.084 81.136 179.015 77.75C179.007 77.338 183.315 77 188.588 77H198.176L197.47 72.75C196.568 67.321 194.553 63.402 191.729 61.583C188.723 59.648 183.131 58.914 179.643 59.997ZM277.942 59.904C270.542 62.276 267.997 66.197 268.004 75.218C268.01 84.378 273.326 90 281.982 90C291.521 90 296.99 84.616 296.996 75.218C297.003 65.324 293.263 60.695 284.355 59.571C282.235 59.303 279.349 59.453 277.942 59.904ZM311.12 60.17C308.711 60.594 305.674 61.639 304.37 62.493C302.086 63.99 302 64.5 302 76.523V89H306.5H311V78V67H316.563H322.127L321.813 63.785C321.553 61.11 320.996 60.472 318.5 59.985C316.85 59.663 313.529 59.747 311.12 60.17ZM362.506 61.252C365.691 63.992 366.771 70.134 365.007 75.48C363.662 79.555 359.546 82 354.032 82H351V70.5V59H355.444C358.612 59 360.64 59.647 362.506 61.252ZM390.12 60.17C387.711 60.594 384.674 61.639 383.37 62.493C381.086 63.99 381 64.5 381 76.523V89H385.5H390V78V67H395.563H401.127L400.813 63.785C400.553 61.11 399.996 60.472 397.5 59.985C395.85 59.663 392.529 59.747 390.12 60.17ZM412.942 59.904C405.542 62.276 402.997 66.197 403.004 75.218C403.01 84.378 408.326 90 416.982 90C426.521 90 431.99 84.616 431.996 75.218C432.003 65.324 428.263 60.695 419.355 59.571C417.235 59.303 414.349 59.453 412.942 59.904ZM445.016 59.987C443.1 60.458 440.501 62.041 439.242 63.505C437.027 66.08 436.961 66.71 437.226 82.833L437.5 99.5H441.5H445.5L445.797 94.401L446.094 89.303L450.881 89.763C457.57 90.405 461.612 88.131 464.207 82.264C467.561 74.683 465.535 65.316 459.736 61.592C456.813 59.714 449.408 58.907 445.016 59.987ZM558.643 59.997C552.563 61.885 549 67.324 549 74.716C549 84.095 554.861 90 564.169 90C571.657 90 574 88.695 574 84.525C574 80.609 573.981 80.6 568.859 82.022C563.86 83.411 558.084 81.136 558.015 77.75C558.007 77.338 562.315 77 567.588 77H577.176L576.47 72.75C575.568 67.321 573.553 63.402 570.729 61.583C567.723 59.648 562.131 58.914 558.643 59.997ZM207.19 62.026C202.799 64.703 200.666 69.962 201.227 76.728C201.541 80.516 202.351 82.759 204.083 84.637C208.526 89.455 216.37 91.331 222.435 89.025C224.607 88.199 225 87.428 225 83.99C225 80.286 224.83 80.02 223.066 80.965C220.129 82.536 213.363 82.221 211.571 80.429C210.618 79.476 210 77.123 210 74.452C210 70.859 210.46 69.745 212.493 68.413C214.952 66.802 219.481 66.819 223.25 68.455C224.751 69.106 225 68.647 225 65.224C225 61.931 224.607 61.128 222.75 60.63C217.926 59.338 210.508 60.003 207.19 62.026ZM586.5 60.945C577.759 64.523 579.241 76.829 588.624 78.589C592.701 79.354 595.009 81.676 592.608 82.597C590.915 83.246 586.134 82.729 582.177 81.468C580.024 80.783 579.877 80.976 580.177 84.091C580.571 88.192 583.527 89.965 590 89.984C596.261 90.002 601.227 87.31 602.363 83.283C603.635 78.775 601.677 74.487 597.664 72.995C590.716 70.41 590 69.983 590 68.421C590 67.111 590.82 66.882 594.25 67.229C596.587 67.466 599.288 68.009 600.25 68.437C601.732 69.095 602 68.676 602 65.705C602 62.668 601.576 62.048 598.851 61.098C595.217 59.831 589.398 59.759 586.5 60.945ZM518 75V89H523H528V75V61H523H518V75ZM780 95.739V128.479L762.74 111.239C753.246 101.758 744.812 94 743.997 94C743.182 94 732.053 104.456 719.265 117.235L696.014 140.47L687.736 132.235C683.183 127.706 679.054 124 678.559 124C678.065 124 671.437 130.167 663.83 137.704L650 151.408V107.204V63H715H780V95.739ZM140.25 68.25L142.5 70.5L137.643 70.809C131.735 71.185 130.753 70.434 133.861 67.914C136.868 65.476 137.51 65.51 140.25 68.25ZM187.25 68.25L189.5 70.5L184.643 70.809C178.735 71.185 177.753 70.434 180.861 67.914C183.868 65.476 184.51 65.51 187.25 68.25ZM566.25 68.25L568.5 70.5L563.643 70.809C557.735 71.185 556.753 70.434 559.861 67.914C562.868 65.476 563.51 65.51 566.25 68.25ZM286.8 68.2C288.625 70.025 288.31 79 286.345 81.171C284.314 83.416 280.679 83.536 278.571 81.429C276.674 79.531 276.407 69.993 278.2 68.2C279.75 66.65 285.25 66.65 286.8 68.2ZM421.8 68.2C423.625 70.025 423.31 79 421.345 81.171C419.314 83.416 415.679 83.536 413.571 81.429C411.674 79.531 411.407 69.993 413.2 68.2C414.75 66.65 420.25 66.65 421.8 68.2ZM455.443 69.223C458.959 74.241 456.186 83 451.082 83C446.589 83 446 82.079 446 75.06C446 71.36 446.3 68.033 446.667 67.667C448.279 66.055 453.926 67.056 455.443 69.223ZM678.389 80.905C667.227 87.711 667.593 103.64 679.053 109.776C690.493 115.901 704.001 106.766 702.75 93.749C702.225 88.291 699.945 84.609 695.01 81.25C690.748 78.349 682.849 78.185 678.389 80.905ZM693.077 88.923C697.961 93.808 696.143 101.808 689.661 103.947C683.099 106.113 676.322 100.626 677.376 94C678.61 86.241 687.515 83.361 693.077 88.923ZM762.24 120.74L780 138.479V144.847C780 149.519 779.667 151.092 778.75 150.754C778.063 150.501 771.072 148.161 763.216 145.553C743.731 139.085 743.352 139.442 750 158C752.2 164.141 754 169.354 754 169.583C754 169.812 730.6 170 702 170H650V165.737C650 161.584 650.369 161.105 664.268 147.232L678.536 132.989L686.495 140.995C690.872 145.398 695.142 149 695.985 149C696.827 149 707.859 138.65 720.5 126C733.141 113.35 743.708 103 743.982 103C744.256 103 752.472 110.983 762.24 120.74ZM422.659 125.054C421.223 126.183 419.57 128.883 418.986 131.054C418.207 133.946 417.399 135 415.961 135C414.386 135 414 135.69 414 138.5C414 141.333 414.381 142 416 142C417.873 142 418 142.667 418 152.5V163H422.5H427V152.5V142H430C432.762 142 433 141.722 433 138.5C433 135.278 432.762 135 430 135C428.119 135 427 134.486 427 133.622C427 131.647 429.71 129.675 431.487 130.357C432.681 130.815 433 130.1 433 126.969C433 123.028 432.972 123 429.135 123C426.75 123 424.27 123.787 422.659 125.054ZM252.667 124.667C252.3 125.033 252 126.608 252 128.167C252 130.858 252.225 131 256.5 131C260.976 131 261 130.981 261 127.5C261 124.109 260.881 124 257.167 124C255.058 124 253.033 124.3 252.667 124.667ZM400.187 128.25C400.481 131.301 400.761 131.519 404.75 131.807L409 132.115V128.557C409 125.001 408.999 125 404.437 125C399.891 125 399.874 125.012 400.187 128.25ZM557.5 136.032C550.718 144.515 549.5 146.608 549.5 149.77V153.5L557.25 153.792L565 154.084V158.542V163H569.5H574V158.57C574 154.736 574.303 154.096 576.25 153.82C578.057 153.563 578.561 152.762 578.81 149.75C579.095 146.312 578.908 146 576.56 146H574V136V126L569.75 126.012C565.57 126.024 565.368 126.189 557.5 136.032ZM122.329 135.404C120.585 136.192 118.672 137.744 118.079 138.853C117.435 140.055 117 147.354 117 156.934V173H121.5H126V168.168V163.335L131.39 163.782C136.443 164.201 137.02 164.009 140.64 160.692L144.5 157.154V149.096C144.5 141.354 144.374 140.912 141.28 137.819C138.443 134.982 137.313 134.561 131.78 134.284C127.832 134.087 124.322 134.502 122.329 135.404ZM156.578 135.069C150.105 136.672 150 136.921 150 150.622V163H154.5H159V152.443V141.885L163.25 142.193L167.5 142.5L167.785 152.75L168.07 163H172.535H177V151.556C177 140.986 176.82 139.903 174.651 137.38C172.658 135.064 171.406 134.608 166.401 134.373C163.155 134.222 158.735 134.535 156.578 135.069ZM191.094 135.306C186.058 137.071 183.708 140.889 183.182 148.162C182.845 152.82 183.17 155.16 184.496 157.623C187.319 162.864 195.201 165.568 200.066 162.965C201.651 162.116 202 162.26 202 163.765C202 167.808 196.649 169.194 189.243 167.07L186 166.14V170.051C186 173.468 186.347 174.057 188.75 174.717C193.405 175.995 201.33 175.451 204.829 173.615C209.823 170.993 211 167.055 211 152.966C211 146.213 210.523 139.977 209.92 138.85C207.624 134.561 198.255 132.797 191.094 135.306ZM272.329 135.404C270.585 136.192 268.672 137.744 268.079 138.853C267.435 140.055 267 147.354 267 156.934V173H271.5H276V168.168V163.335L281.39 163.782C286.443 164.201 287.02 164.009 290.64 160.692L294.5 157.154V149.096C294.5 141.354 294.374 140.912 291.28 137.819C288.443 134.982 287.313 134.561 281.78 134.284C277.832 134.087 274.322 134.502 272.329 135.404ZM307.094 135.306C302.058 137.071 299.708 140.889 299.182 148.162C298.845 152.82 299.17 155.16 300.496 157.623C303.319 162.864 311.201 165.568 316.066 162.965C317.651 162.116 318 162.26 318 163.765C318 167.808 312.649 169.194 305.243 167.07L302 166.14V170.051C302 173.468 302.347 174.057 304.75 174.717C309.405 175.995 317.33 175.451 320.829 173.615C325.823 170.993 327 167.055 327 152.966C327 146.213 326.523 139.977 325.92 138.85C323.624 134.561 314.255 132.797 307.094 135.306ZM375.094 135.306C370.058 137.071 367.708 140.889 367.182 148.162C366.845 152.82 367.17 155.16 368.496 157.623C371.319 162.864 379.201 165.568 384.066 162.965C385.651 162.116 386 162.26 386 163.765C386 167.808 380.649 169.194 373.243 167.07L370 166.14V170.051C370 173.468 370.347 174.057 372.75 174.717C377.405 175.995 385.33 175.451 388.829 173.615C393.823 170.993 395 167.055 395 152.966C395 146.213 394.523 139.977 393.92 138.85C391.624 134.561 382.255 132.797 375.094 135.306ZM472.578 135.068C466.105 136.672 466 136.921 466 150.622V163H470.5H475V152.5V142H478.893C483.729 142 484 142.64 484 154.082V163H488.5H493V152.44V141.879L496.75 142.19L500.5 142.5L500.785 152.75L501.07 163H505.535H510V151.556C510 140.901 509.834 139.918 507.587 137.306C505.108 134.423 502.951 134.124 490.5 134.94C488.85 135.048 485.025 134.903 482 134.617C478.975 134.331 474.735 134.534 472.578 135.068ZM522.329 135.404C520.585 136.192 518.672 137.744 518.079 138.853C517.435 140.055 517 147.354 517 156.934V173H521.5H526V168.168V163.335L531.39 163.782C536.443 164.201 537.02 164.009 540.64 160.692L544.5 157.154V149.096C544.5 141.354 544.374 140.912 541.28 137.819C538.443 134.982 537.313 134.561 531.78 134.284C527.832 134.087 524.322 134.502 522.329 135.404ZM252.667 135.667C252.3 136.033 252 143.05 252 151.26C252 165.346 251.887 166.217 250 166.71C247.071 167.476 247.099 174 250.032 174C253.314 174 258.752 171.333 259.92 169.15C260.565 167.945 261 160.662 261 151.066V135H257.167C255.058 135 253.033 135.3 252.667 135.667ZM400.667 135.667C400.3 136.033 400 142.333 400 149.667V163H404.5H409V149V135H405.167C403.058 135 401.033 135.3 400.667 135.667ZM564.659 145.675C564.402 145.931 562.771 145.997 561.034 145.821L557.875 145.5L561.188 141.189L564.5 136.878L564.813 141.043C564.985 143.334 564.915 145.418 564.659 145.675ZM135.225 143.329C135.634 143.973 135.976 146.605 135.985 149.179C136.003 154.892 134.049 157.235 129.625 156.804L126.5 156.5L126.208 149.331C125.956 143.141 126.16 142.097 127.708 141.679C130.185 141.009 134.327 141.919 135.225 143.329ZM201.792 149.25L202.084 157H198.077C193.326 157 192 155.231 192 148.894C192 143.51 194.277 140.793 198.449 141.201L201.5 141.5L201.792 149.25ZM285.225 143.329C285.634 143.973 285.976 146.605 285.985 149.179C286.003 154.892 284.049 157.235 279.625 156.804L276.5 156.5L276.208 149.331C275.956 143.141 276.16 142.097 277.708 141.679C280.185 141.009 284.327 141.919 285.225 143.329ZM317.792 149.25L318.084 157H314.077C309.326 157 308 155.231 308 148.894C308 143.51 310.277 140.793 314.449 141.201L317.5 141.5L317.792 149.25ZM385.792 149.25L386.084 157H382.077C377.326 157 376 155.231 376 148.894C376 143.51 378.277 140.793 382.449 141.201L385.5 141.5L385.792 149.25ZM535.225 143.329C535.634 143.973 535.976 146.605 535.985 149.179C536.003 154.892 534.049 157.235 529.625 156.804L526.5 156.5L526.208 149.331C525.956 143.141 526.16 142.097 527.708 141.679C530.185 141.009 534.327 141.919 535.225 143.329ZM797.423 171.285C793.291 173.366 789.642 175.77 789.313 176.628C788.899 177.705 792.618 182.098 801.357 190.857C808.311 197.826 814 204.006 814 204.59C814 205.174 812.97 206.619 811.711 207.802L809.422 209.952L796.976 197.476C788.338 188.817 783.835 185 782.257 185C780.425 185 779.264 186.454 776.277 192.491C774.024 197.045 772.299 199.496 771.878 198.741C771.498 198.059 767.709 187.375 763.459 175C759.209 162.625 755.545 152.006 755.317 151.401C755.089 150.797 766.16 154.172 779.919 158.901L804.936 167.5L797.423 171.285ZM220.321 159.75C219.982 160.713 219.096 163.017 218.352 164.872C216.46 169.592 216.625 170.176 219.75 169.816C221.881 169.571 223.113 168.375 225.227 164.5C226.726 161.75 227.964 159.162 227.977 158.75C227.989 158.338 226.411 158 224.469 158C222.007 158 220.751 158.53 220.321 159.75ZM337.321 159.75C336.982 160.713 336.096 163.017 335.352 164.872C333.46 169.592 333.625 170.176 336.75 169.816C338.881 169.571 340.113 168.375 342.227 164.5C343.726 161.75 344.964 159.162 344.977 158.75C344.989 158.338 343.411 158 341.469 158C339.007 158 337.751 158.53 337.321 159.75ZM436.321 159.75C435.982 160.713 435.096 163.017 434.352 164.872C432.46 169.592 432.625 170.176 435.75 169.816C437.881 169.571 439.113 168.375 441.227 164.5C442.726 161.75 443.964 159.162 443.977 158.75C443.989 158.338 442.411 158 440.469 158C438.007 158 436.751 158.53 436.321 159.75Z"/>
</svg>
