<svg width="39" height="38" viewBox="0 0 39 38" fill="none" xmlns="http://www.w3.org/2000/svg">
<path fill="currentColor" d="M12.8242 8.36713C13.4342 8.3672 14.0066 8.67807 14.3428 9.18842L15.5508 11.0185C15.8869 11.529 16.4475 11.8408 17.0576 11.8408L22.2617 11.8906C22.7346 11.9031 23.1825 12.0895 23.5186 12.413L24.54 13.4091C24.8637 13.7328 25.3118 13.9325 25.7725 13.9326L34.5498 14.0937C35.5068 14.117 36.2778 14.8627 36.3398 15.7968L34.0273 33.6288C33.8032 34.4132 33.0932 34.9609 32.2715 34.9609H4.02148C3.01303 34.9609 2.19145 34.1392 2.19141 33.1308V11.8779C2.19141 11.4919 2.31618 11.1061 2.55273 10.7949L3.80957 9.1015C4.15818 8.64083 4.70657 8.36713 5.2793 8.36713H12.8242ZM7.15918 17.2568L5.58984 32.4462L31.3506 32.7822V32.7695L33.3545 17.2568H7.15918ZM34.4883 1.46869C34.8741 1.15816 35.4459 1.43184 35.4463 1.91693V12.2636C35.4463 12.5997 35.1603 12.8733 34.8242 12.8486L23.9922 12.0644C23.4942 12.027 23.2697 11.4169 23.6182 11.0683L26.3945 8.32904C26.3815 8.29312 25.5693 6.08928 22.0498 6.17572C19.8586 6.31268 17.6052 8.65304 16.6465 9.78607C16.3975 10.0849 15.937 10.0473 15.7129 9.72357L14.4424 7.80658C14.3303 7.63227 14.3179 7.42009 14.3926 7.23334V7.24603C14.9653 5.98848 17.5925 1.30771 24.6641 1.35736H24.7764C29.7815 2.06704 30.877 4.44525 30.877 4.44525L34.4883 1.46869Z"/>
</svg>
