<svg width="40" height="40" viewBox="0 0 40 40" fill="none" xmlns="http://www.w3.org/2000/svg">
<path d="M3.28197 7.80203C3.7562 7.80203 4.12583 7.81044 4.41771 7.90262C4.76659 8.01282 4.96579 8.22512 5.14916 8.45828C5.19752 8.51974 5.26695 8.60764 5.32689 8.73172C5.38636 8.85483 5.42666 8.99222 5.45775 9.1575C5.51734 9.47443 5.55192 9.96319 5.57494 10.7903C5.62138 12.4597 5.62279 15.6448 5.62279 21.927V34.1204H17.8161C24.0984 34.1204 27.2835 34.1218 28.9529 34.1682C29.78 34.1913 30.2688 34.2258 30.5857 34.2854C30.751 34.3165 30.8883 34.3568 31.0115 34.4163C31.1356 34.4763 31.2234 34.5457 31.2849 34.594L31.4548 34.7366C31.618 34.8863 31.7579 35.0639 31.8406 35.3255C31.9327 35.6173 31.9411 35.987 31.9411 36.4612C31.9412 36.6891 31.9598 36.8283 31.9685 37.0511C31.9756 37.2336 31.9759 37.4849 31.866 37.7239C31.7435 37.99 31.5246 38.1646 31.2536 38.2796C30.9973 38.3884 30.6661 38.4567 30.2566 38.5052C28.6377 38.6966 25.0922 38.6413 17.4665 38.6136L4.14916 38.5647H4.01927L3.90697 38.5013L3.114 38.0579C2.51169 37.7208 2.02235 37.2315 1.68529 36.6292L1.24193 35.8362L1.17845 35.7239V35.594L1.12963 22.2766C1.10738 16.1477 1.10091 12.8048 1.13451 10.9573C1.15123 10.0377 1.17766 9.46845 1.22045 9.10574C1.26114 8.76085 1.32485 8.49517 1.50658 8.29422L1.58275 8.21707C1.97223 7.85041 2.50321 7.80204 3.28197 7.80203ZM12.1579 27.5852H34.2068L34.1921 24.2044C34.1768 24.2533 34.16 24.2988 34.1423 24.3391C34.0922 24.4536 34.0249 24.5668 33.9529 24.6731C33.8086 24.886 33.619 25.1065 33.4197 25.304C33.2204 25.5014 32.9984 25.6896 32.7839 25.8323C32.6767 25.9036 32.5619 25.9694 32.447 26.0188C32.3382 26.0656 32.1954 26.1126 32.0398 26.1126C31.8498 26.1125 31.6724 26.0306 31.5554 25.969C31.4188 25.8971 31.2682 25.7985 31.112 25.6839C30.7984 25.4535 30.4208 25.1287 30.0115 24.7376L29.0701 23.8382L28.1716 24.7307C27.8005 25.0994 27.4357 25.4232 27.1306 25.6585C26.9791 25.7753 26.8339 25.8773 26.7038 25.9524C26.639 25.9899 26.5693 26.0263 26.4988 26.054C26.4359 26.0787 26.3341 26.1126 26.2165 26.1126C25.9383 26.1125 25.6676 25.9803 25.4665 25.8557C25.2475 25.72 25.0277 25.5397 24.8328 25.3479C24.6378 25.1562 24.4546 24.9392 24.3161 24.7229C24.2727 24.6551 24.2301 24.5778 24.1902 24.4954C24.1133 24.712 24.0021 24.9266 23.8376 25.0911C23.7292 25.1995 23.5928 25.3229 23.364 25.4085C23.1611 25.4843 22.9135 25.5205 22.5935 25.5413C21.9517 25.583 20.8228 25.5724 18.7175 25.5471C17.0625 25.5273 15.9372 25.4992 15.2019 25.4544C14.8362 25.4321 14.552 25.4045 14.3415 25.3684C14.2366 25.3505 14.1358 25.3285 14.0466 25.2981C13.9681 25.2714 13.8447 25.2211 13.7419 25.1184C13.6296 25.0062 13.5827 24.8623 13.5642 24.804C13.5377 24.7205 13.5164 24.6253 13.4988 24.5286C13.4631 24.333 13.4331 24.0823 13.4079 23.8011C13.3574 23.2354 13.3228 22.5039 13.3064 21.7473C13.29 20.9899 13.2912 20.1989 13.3142 19.513C13.3368 18.8388 13.3805 18.2306 13.4578 17.8587C13.7245 16.573 14.6112 15.4174 15.7663 14.8929C16.429 14.5919 17.1279 14.5209 18.5896 14.5179L19.99 14.5149V12.3343H17.5203C16.6349 12.3343 15.9504 12.334 15.4294 12.3079C14.9208 12.2824 14.5017 12.2307 14.1804 12.096C13.8102 11.9408 13.5855 11.683 13.4665 11.3352C13.3666 11.0427 13.3423 10.6785 13.3161 10.3167C13.2827 9.85326 13.2626 9.4902 13.3367 9.18973C13.4228 8.84063 13.6207 8.61954 13.8376 8.40262C13.9427 8.29759 14.0739 8.16313 14.2527 8.06082C14.4407 7.95325 14.6472 7.89679 14.8982 7.86356C15.3702 7.80105 16.1592 7.80249 17.612 7.80301C18.4348 7.80328 19.2563 7.82396 19.9187 7.85672C20.2497 7.87309 20.5451 7.89215 20.782 7.91434C21.0048 7.93521 21.2146 7.96131 21.3513 7.9993C22.4795 8.31268 23.3934 9.02286 23.8943 10.0139C24.0906 10.4025 24.2123 10.7203 24.2761 11.2317C24.3358 11.7102 24.3454 12.3646 24.3454 13.4241C24.3454 14.4834 24.3358 15.138 24.2761 15.6165C24.2123 16.1279 24.0906 16.4457 23.8943 16.8343C23.489 17.6366 22.8905 18.2062 22.0193 18.5628C21.172 18.9095 20.0879 19.0471 18.7146 19.0471H17.8103V21.0491H20.2244C21.5511 21.0491 22.3207 21.0563 22.7956 21.1077C23.0378 21.1339 23.2414 21.1745 23.4197 21.2513C23.6103 21.3333 23.7393 21.442 23.8464 21.5491C24.0673 21.77 24.1912 22.0818 24.2634 22.3665C24.3261 22.6139 24.3587 22.8857 24.3679 23.1565C24.3924 23.121 24.4165 23.0847 24.4421 23.0501C24.6654 22.7486 24.9963 22.3869 25.4382 21.9475L26.323 21.0677L25.4363 20.1741C25.0702 19.8051 24.7733 19.4905 24.5564 19.2122C24.3427 18.938 24.1722 18.6571 24.1072 18.3548C23.9612 17.6761 24.394 17.1733 24.8464 16.721C25.0491 16.5182 25.2803 16.334 25.4949 16.1966C25.602 16.128 25.7129 16.0654 25.821 16.0188C25.9179 15.9771 26.0593 15.927 26.2117 15.927L26.2956 15.9329C26.3762 15.9432 26.4452 15.9658 26.4939 15.9846C26.5657 16.0125 26.6368 16.0491 26.7029 16.0872C26.8351 16.1634 26.9832 16.2667 27.1374 16.386C27.4481 16.6264 27.8216 16.9595 28.2107 17.346L29.1394 18.2688L30.0632 17.347H30.0642C30.4393 16.9727 30.8108 16.6403 31.1208 16.3977C31.275 16.2772 31.4231 16.1716 31.5535 16.094C31.6182 16.0555 31.6875 16.0183 31.7576 15.9895C31.8182 15.9646 31.9231 15.927 32.0456 15.927C32.2018 15.927 32.3443 15.9753 32.4509 16.0218C32.5642 16.0711 32.6769 16.1365 32.7829 16.2073C32.9955 16.3493 33.2168 16.5368 33.4158 16.7327C33.6146 16.9285 33.8053 17.1461 33.9499 17.3557C34.0221 17.4603 34.0888 17.5723 34.1394 17.6848C34.1477 17.7034 34.1556 17.7237 34.1638 17.7444L34.1599 16.6595C34.1463 13.5175 34.1288 10.6556 34.1111 8.57645C34.1022 7.53691 34.093 6.69332 34.0847 6.10867C34.0823 5.93786 34.0792 5.78963 34.0769 5.66531C33.9528 5.66302 33.8049 5.6609 33.6345 5.65848C33.0498 5.65017 32.2055 5.64098 31.1658 5.63211C29.0867 5.61437 26.2254 5.59688 23.0837 5.58328L12.1579 5.53641V27.5852ZM34.1667 18.3997C34.1398 18.4631 34.1084 18.5265 34.074 18.5852C33.9969 18.7166 33.8915 18.8641 33.7712 19.0188C33.5897 19.2524 33.3572 19.5217 33.0915 19.803L32.8161 20.0872L31.8894 21.0198L32.8161 21.9524C33.1782 22.3168 33.5104 22.6908 33.7556 23.0032C33.8774 23.1584 33.9843 23.3067 34.0632 23.4358C34.1024 23.4999 34.141 23.5686 34.1706 23.637C34.1769 23.6514 34.1814 23.6706 34.1892 23.6917L34.1667 18.3997ZM38.5652 16.427C38.5652 19.8042 38.5501 22.9287 38.5261 25.2415C38.5141 26.3975 38.5 27.3525 38.4841 28.0354C38.4762 28.3762 38.4676 28.6518 38.4587 28.8518C38.4543 28.9514 38.4501 29.0361 38.4451 29.1018C38.4417 29.1454 38.4345 29.2372 38.4138 29.3108C38.2853 29.7688 37.9802 30.2293 37.6228 30.6126C37.2614 31.0001 36.808 31.3503 36.3357 31.5647C35.8937 31.7654 35.4256 31.8429 33.7244 31.886C31.9987 31.9297 28.92 31.9359 23.1785 31.9378C17.8708 31.9395 14.7834 31.9309 12.9529 31.8929C12.039 31.8739 11.4268 31.8469 11.0036 31.8089C10.588 31.7715 10.3122 31.7208 10.0974 31.6311C9.62906 31.4354 9.24959 31.2206 8.93236 30.9173C8.69391 30.6892 8.50701 30.4264 8.34056 30.1184L8.17943 29.7952C7.97726 29.355 7.90072 28.8895 7.85814 27.1858C7.81495 25.4575 7.80931 22.3694 7.80931 16.6038C7.80931 10.8267 7.81483 7.73923 7.85814 6.01395C7.90087 4.31229 7.97782 3.85243 8.18138 3.41141C8.66562 2.3622 9.38818 1.7164 10.4734 1.3743L10.6579 1.32742C10.8628 1.28515 11.1311 1.25588 11.4812 1.2327C11.961 1.20093 12.6379 1.17783 13.5945 1.16238C15.5092 1.13147 18.5751 1.12873 23.4939 1.14285L35.5935 1.17801H35.7234L35.8367 1.24149L36.6286 1.68582C37.231 2.02289 37.7203 2.51218 38.0574 3.11453L38.5017 3.90652L38.5652 4.02078V16.427Z" fill="currentColor" stroke="black"/>
</svg>
