<svg width="225" height="225" viewBox="0 0 225 225" fill="none" xmlns="http://www.w3.org/2000/svg">
<path fill-rule="evenodd" clip-rule="evenodd" d="M60.1431 10.4791C54.7821 12.1691 51.307 15.2631 48.89 20.5001C47.1511 24.2671 47.044 28.5421 47.044 94.0001C47.044 159.323 47.154 163.74 48.8811 167.5C51.0661 172.258 53.2961 174.39 58.2541 176.462C61.4491 177.797 71.0991 177.997 131.218 177.978C196.272 177.957 200.747 177.844 204.541 176.12C209.083 174.058 213.624 169.187 214.75 165.173C215.163 163.703 215.5 131.225 215.5 93.0001V23.5001L212.987 19.0131C211.334 16.0591 208.941 13.6661 205.987 12.0131L201.5 9.50011L133 9.30311C77.2941 9.14311 63.6861 9.36311 60.1431 10.4791ZM195.667 29.3331C195.819 29.4851 196.068 58.7231 196.222 94.3051L196.5 159.001L131.25 159H66V93.7501L65.9991 28.5001L130.695 28.7781C166.277 28.9321 195.515 29.1811 195.667 29.3331ZM10.6301 48.8561C9.08405 50.5651 8.97305 56.6761 9.22505 126.106L9.50005 201.5L12.0131 205.987C13.6661 208.941 16.0591 211.334 19.0131 212.987L23.5001 215.5L98.8941 215.775C185.597 216.09 178 216.989 178 206.418C178 200.832 177.711 199.918 175.365 198.073C172.755 196.019 172.055 196 100.865 196H29.0001V124.135C29.0001 52.9451 28.9811 52.2451 26.9271 49.6351C25.0821 47.2891 24.1681 47.0001 18.5821 47.0001C13.7421 47.0001 11.9261 47.4241 10.6301 48.8561ZM80.3391 49.5701C78.0171 51.8921 77.812 52.7221 78.2081 58.2041C78.8391 66.9211 79.0281 67.0001 99.1911 67.0001H116V76.0001V85.0001L105.25 85.0221C96.9621 85.0391 93.5681 85.4671 90.4291 86.8931C84.7691 89.4631 80.303 95.2231 78.9631 101.68C77.4341 109.045 78.0721 138.478 79.798 140.203C80.775 141.179 87.2541 141.574 106 141.799C129.974 142.086 130.979 142.021 132.951 140.049C135.861 137.139 135.892 126.892 133 124C131.162 122.162 129.667 122 114.5 122H98.0001V113.5V105H105.951C121.238 105 128.765 101.919 132.75 94.0301C134.754 90.0631 135 88.0931 135 76.0001C135 63.9071 134.754 61.9371 132.75 57.9701C130.309 53.1391 125.818 49.5991 120.118 48.0161C118.128 47.4631 108.942 47.0091 99.7051 47.0061C82.9981 47.0001 82.896 47.0141 80.3391 49.5701ZM142.667 96.6671C137.344 101.989 137.755 103.897 146.013 112.221L153.027 119.29L146.013 126.262C141.061 131.185 139 133.968 139 135.732C139 138.72 145.384 145 148.422 145C149.599 145 153.416 142.057 157.496 138.004L164.54 131.007L171.863 138.004C176.396 142.335 180.025 145 181.39 145C184.092 145 191 138.157 191 135.481C191 134.417 187.749 130.274 183.775 126.274L176.55 119L183.775 111.726C187.965 107.508 191 103.603 191 102.429C191 99.8461 184.046 93.0001 181.422 93.0001C180.282 93.0001 176.331 96.0911 172.201 100.212L164.975 107.425L157.714 100.212C153.42 95.9471 149.611 93.0001 148.393 93.0001C147.26 93.0001 144.683 94.6501 142.667 96.6671Z" fill="currentColor"/>
</svg>
