<svg width="60" height="52" viewBox="0 0 60 52" fill="none" xmlns="http://www.w3.org/2000/svg">
<path fill="currentColor" d="M18.732 12.4384C20.1719 12.4384 21.5388 13.1168 22.4048 14.2645L24.5025 17.0292C24.9094 17.5717 25.546 17.8954 26.2242 17.8954L29.1666 18.0096C30.3664 18.062 31.2945 19.0432 31.2945 20.243L31.2632 23.7382H34.5923V16.5184H27.5279L40.4879 3.36023L53.7291 16.3202L47.1031 16.3094L47.1763 23.7382H55.064V23.7489C55.9405 23.7489 56.5353 24.6362 56.2222 25.4501L47.0611 48.9794H3.86285V13.5233C3.86285 12.9182 4.35315 12.4385 4.94781 12.4384H18.732ZM15.3716 27.286L9.34137 45.6512L44.7662 45.4208H44.7759L51.3707 27.2235L15.3716 27.286Z"/>
</svg>
