<svg width="26" height="29" viewBox="0 0 26 29" fill="none" xmlns="http://www.w3.org/2000/svg">
<path fill-rule="evenodd" clip-rule="evenodd" d="M16.8489 3.01681C15.9376 3.25942 15.1477 3.71198 14.4665 4.38189C13.7809 5.056 13.3704 5.72957 13.1078 6.61078C13.0068 6.94999 12.9884 7.10202 12.983 7.64263L12.9768 8.27666L13.1579 8.2921C13.4493 8.31701 14.1262 8.20791 14.5001 8.07585C15.0615 7.87745 15.4597 7.60875 16.0121 7.0556C17.1172 5.94894 17.5843 4.93191 17.6511 3.48745L17.6778 2.91002L17.4558 2.9122C17.3337 2.91337 17.0606 2.96047 16.8489 3.01681ZM16.5998 8.52439C16.0364 8.60482 15.264 8.83995 13.9957 9.31702C13.516 9.49749 13.3812 9.52983 13.1119 9.52915C12.7795 9.52833 12.7494 9.51923 11.369 9.00263C10.4758 8.66831 9.96012 8.55853 9.26313 8.55432C8.93932 8.55237 8.55211 8.57692 8.40266 8.60885C5.82599 9.15951 4.02819 11.2345 3.60425 14.1473C3.52364 14.7012 3.51127 15.9911 3.58066 16.6097C3.88649 19.3361 4.89791 21.8488 6.56102 24.0143C7.31643 24.9979 7.94747 25.5756 8.60646 25.8869C8.9693 26.0583 9.01998 26.0697 9.48957 26.0866C10.0786 26.1078 10.3821 26.0379 11.5049 25.6221C12.4616 25.2679 12.9208 25.1762 13.5881 25.2059C14.1924 25.2329 14.5398 25.3175 15.4037 25.648C16.1727 25.9422 16.5717 26.044 17.0917 26.0788C17.7836 26.125 18.3795 25.9436 18.9548 25.5114C19.8078 24.8707 21.1309 23.0354 21.8756 21.4598C22.1522 20.8746 22.4646 20.081 22.4646 19.9636C22.4646 19.9241 22.3431 19.833 22.1816 19.7515C21.1317 19.2217 20.1998 18.2602 19.7959 17.2899C19.7143 17.0938 19.5952 16.7382 19.5313 16.4998C19.4253 16.1045 19.4149 15.9862 19.4131 15.1604C19.4112 14.3219 19.4198 14.2226 19.529 13.8222C19.6616 13.3359 19.8805 12.8506 20.1551 12.4341C20.41 12.0474 21.0581 11.401 21.504 11.0885L21.8753 10.8283L21.731 10.6167C20.8842 9.37549 19.2241 8.55813 17.4376 8.50306C17.1263 8.49346 16.7493 8.50306 16.5998 8.52439Z" fill="currentColor"/>
</svg>
