<svg width="23" height="28" viewBox="0 0 23 28" fill="none" xmlns="http://www.w3.org/2000/svg">
<path d="M19.2219 20.0196C18.6505 20.3452 17.7147 20.8066 16.9643 20.8066C16.4058 20.8066 15.746 20.5522 15.2091 20.2869C17.9928 18.6784 19.8795 15.5497 19.8795 11.9509C19.8817 6.71116 15.8754 2.46333 10.9332 2.46333C5.9911 2.46333 1.98477 6.71116 1.98477 11.9509C1.98477 16.9016 5.562 20.964 10.1246 21.3974C10.737 22.7063 11.9122 24.6728 13.4345 24.6728C15.6986 24.6728 18.2947 24.4636 19.2348 24.3968C19.4224 24.3838 19.7394 24.2372 19.7394 24.0345V20.3667C19.7394 20.0756 19.4591 19.8859 19.2219 20.0217V20.0196ZM7.46382 11.9509C7.46382 9.09382 8.98829 6.77585 10.8685 6.77585C12.7488 6.77585 14.2733 9.09382 14.2733 11.9509C14.2733 14.8079 12.7488 17.1259 10.8685 17.1259C8.98829 17.1259 7.46382 14.8079 7.46382 11.9509Z" fill="currentColor"/>
</svg>
