<svg width="30" height="30" viewBox="0 0 30 30" fill="none" xmlns="http://www.w3.org/2000/svg">
<path fill-rule="evenodd" clip-rule="evenodd" d="M13.2285 2.44476C13.1849 2.51531 13.0293 3.03568 12.8828 3.60111C12.4998 5.07933 12.14 5.86114 11.8426 5.86114C11.7001 5.86114 11.2908 6.00258 10.9328 6.17559C10.294 6.48413 10.2727 6.48379 9.75252 6.15449C9.46119 5.97001 9.18253 5.85928 9.13324 5.9084C9.08413 5.95769 8.57929 5.73523 8.0115 5.41437L6.97904 4.83088L5.89206 5.91785L4.80491 7.00483L5.1067 7.57229C6.42103 10.0435 6.57345 10.5878 6.11975 11.1878C5.98337 11.3679 5.86944 11.6508 5.86657 11.8161C5.86354 11.9815 5.72834 12.1636 5.5658 12.2208C5.40343 12.278 4.95176 12.4654 4.56237 12.6374C4.17298 12.8094 3.74747 12.9501 3.617 12.9501C3.48653 12.9501 3.14052 13.0335 2.84819 13.1354L2.31668 13.3208V14.9921C2.31668 16.4615 2.35229 16.6664 2.61206 16.6891C2.7746 16.7032 2.98338 16.7238 3.07621 16.735C3.63743 16.8021 5.86117 17.7453 5.86117 17.9163C5.86117 18.0295 6.00093 18.4097 6.17191 18.7611C6.47893 19.3922 6.47791 19.4112 6.09426 20.3611C5.88075 20.89 5.51482 21.6645 5.28139 22.0823L4.85673 22.842L5.95552 23.9301L7.05432 25.0183L8.16205 24.4275C8.7712 24.1026 9.31925 23.8341 9.37984 23.8309C9.44043 23.8275 9.65901 23.7309 9.86527 23.6163C10.1753 23.444 10.4074 23.4641 11.1985 23.7311C12.1005 24.0356 12.1793 24.1073 12.5466 24.9584C12.7611 25.4554 12.9397 25.9989 12.9434 26.166C12.9471 26.3329 13.0675 26.6967 13.2109 26.974L13.4717 27.4781L15.0092 27.4297L16.5468 27.3813L17.0069 25.9037C17.2599 25.0912 17.5469 24.3301 17.6444 24.2127C17.742 24.0952 18.234 23.8589 18.738 23.6876C19.6092 23.3913 19.6763 23.3905 20.0999 23.668C20.345 23.8287 20.5455 23.911 20.5455 23.8513C20.5455 23.7914 21.0551 24.013 21.678 24.3435L22.8104 24.9443L23.9047 23.8501L24.9989 22.7559L24.1754 21.1296C23.4007 19.5996 23.3649 19.4716 23.5693 18.9695C23.6888 18.6758 23.8248 18.2697 23.8716 18.0668C23.9597 17.6837 25.1451 17.1235 26.8327 16.6675L27.6345 16.4507L27.6319 14.9958C27.6304 14.1956 27.5678 13.444 27.4927 13.3257C27.4176 13.2072 27.1106 13.0792 26.8105 13.0413C25.895 12.9255 23.9212 12.0991 23.9212 11.8316C23.9212 11.6967 23.7784 11.3046 23.6039 10.9601L23.2866 10.334L24.0947 8.6461L24.9029 6.95825L23.8684 5.90334C23.2994 5.32322 22.778 4.84843 22.7098 4.84843C22.6416 4.84843 22.1868 5.08372 21.699 5.37133C21.2112 5.65894 20.6763 5.92039 20.5102 5.95229C20.3443 5.98435 20.0425 6.12664 19.84 6.26859C19.6219 6.42134 19.3978 6.46708 19.2911 6.38083C19.192 6.30066 18.769 6.12141 18.3513 5.9825L17.5918 5.73L17.0083 4.02324L16.4246 2.31665H14.8662C14.0089 2.31665 13.272 2.37437 13.2285 2.44476ZM15.8838 11.1085C16.5991 11.307 16.7085 11.3797 17.7096 12.3216C18.4153 12.9856 18.8642 14.0574 18.8502 15.0446C18.831 16.4043 17.8721 17.7279 16.3757 18.4599C14.8525 19.2051 13.3424 18.8362 11.993 17.3888C10.6283 15.9255 10.6256 13.895 11.9861 12.4438C13.2531 11.0923 14.4047 10.6979 15.8838 11.1085Z" fill="currentColor"/>
</svg>
