<?xml version="1.0" encoding="UTF-8"?>
<svg id="a" data-name="Layer 2" xmlns="http://www.w3.org/2000/svg" width="70.49" height="86.31" viewBox="0 0 70.49 86.31">
  <path fill="currentColor" d="M67,17.01S56.5-.34,35,0,4,18.01,4,18.01c0,0-2,5-2,8s2,7.6,2,7.6c0,0,3,10.96,30.5,14.68,7,1.44,17.5,3.72,17.5,11.72s-8,11.24-14.5,11.62-19.5-.62-23.5-11.62c-3,1-14,6-14,6,0,0,6,19.61,34.5,20.3,21.14-1.67,39.24-10.22,35.5-34.3,0,0-4-15-34-17-7-1-16-4-16-9,0-6,6-11,16-11,9,0,11,3,18,10,7-4,13-8,13-8Z"/>
</svg>