<svg width="45" height="53" viewBox="0 0 45 53" fill="none" xmlns="http://www.w3.org/2000/svg">
<path fill="currentColor" d="M40.7967 15.6576L36.4793 50.0033H9.13165L4.81525 15.6576H40.7967ZM12.3514 21.3158L13.8182 43.4808H16.4891L15.2957 21.3158H12.3514ZM21.5555 21.4213V43.3646H24.3836V21.4213H21.5555ZM29.9676 21.3158L28.5526 43.2592H31.2654L32.9012 21.3158H29.9676ZM29.0916 3.29822C30.3369 3.29841 31.3603 4.30098 31.3709 5.54626L31.3924 7.5199H40.2059C41.7045 7.52011 42.9178 8.73414 42.9178 10.2328V13.8324H2.83087V10.3597C2.83087 8.8505 4.05507 7.62553 5.56427 7.62537H14.452L14.494 5.85291C14.5256 4.428 15.687 3.29822 17.1014 3.29822H29.0916ZM16.8895 5.4408V7.57263H29.0594V5.4408H16.8895Z"/>
</svg>
