<svg width="25" height="27" viewBox="0 0 25 27" fill="none" xmlns="http://www.w3.org/2000/svg">
<path fill-rule="evenodd" clip-rule="evenodd" d="M19.1973 4.46872C15.4754 5.0194 11.7501 5.56173 11.6911 5.56143C11.6601 5.56127 11.6346 7.26268 11.6346 9.34244V13.1237L16.4318 13.1069C19.0702 13.0977 21.3729 13.0702 21.5488 13.0459L21.8686 13.0016V8.56653V4.13137L21.6241 4.1386C21.4896 4.14259 20.3975 4.29113 19.1973 4.46872ZM9.52763 5.86769C9.01028 5.94415 7.43568 6.16072 6.0285 6.34899C4.62133 6.53719 3.39385 6.70854 3.30069 6.72961L3.13138 6.76798V9.96468V13.1614H6.96913H10.8069V9.4365V5.71162L10.6376 5.72013C10.5445 5.72479 10.045 5.79124 9.52763 5.86769ZM3.13138 17.0529V20.2909L3.41357 20.3353C3.77341 20.3921 7.18352 20.8616 9.00088 21.1048C9.76655 21.2072 10.4861 21.31 10.5999 21.3333L10.8069 21.3756V17.6447V13.9139H8.22279C6.80155 13.9139 5.07456 13.8916 4.38504 13.8644L3.13138 13.815V17.0529ZM11.6346 17.7126V21.436L11.8039 21.4745C12.0508 21.5306 21.5861 22.8686 21.7393 22.8686C21.8601 22.8686 21.8686 22.5767 21.8686 18.4289V13.9891H16.7516H11.6346V17.7126Z" fill="currentColor"/>
</svg>
